<?xml version="1.0" encoding="iso-8859-1"?>
<!-- Generator: Adobe Illustrator 18.1.1, SVG Export Plug-In . SVG Version: 6.00 Build 0)  -->
<svg version="1.1" id="Capa_1" xmlns="http://www.w3.org/2000/svg" xmlns:xlink="http://www.w3.org/1999/xlink" x="0px" y="0px"
	 viewBox="0 0 16 16" style="enable-background:new 0 0 16 16;" xml:space="preserve">
<g>
	<g>
		<g>
			<path style="fill:#010002;" d="M15.829,7.372l-7.5-6.5c-0.188-0.163-0.467-0.163-0.655,0L5,3.188V2.25c0-0.552-0.448-1-1-1
				s-1,0.448-1,1v2.671L0.172,7.372c-0.208,0.181-0.231,0.497-0.05,0.706c0.182,0.208,0.497,0.23,0.706,0.05L8,1.912l7.171,6.216
				c0.096,0.082,0.211,0.122,0.328,0.122c0.141,0,0.278-0.059,0.377-0.172C16.06,7.869,16.036,7.555,15.829,7.372z"/>
			<path style="fill:#010002;" d="M8.633,4.478C8.45,4.327,8.225,4.25,8,4.25c-0.225,0-0.45,0.076-0.634,0.228l-5,4.099
				C2.134,8.767,2,9.05,2,9.351v4.899c0,0.552,0.448,1,1,1h3v-5h4v5h3c0.551,0,1-0.448,1-1V9.351c0-0.302-0.135-0.584-0.367-0.773
				L8.633,4.478z"/>
		</g>
	</g>
</g>
<g>
</g>
<g>
</g>
<g>
</g>
<g>
</g>
<g>
</g>
<g>
</g>
<g>
</g>
<g>
</g>
<g>
</g>
<g>
</g>
<g>
</g>
<g>
</g>
<g>
</g>
<g>
</g>
<g>
</g>
</svg>
